<svg width="1032" height="1032" viewBox="0 0 1032 1032" fill="none" xmlns="http://www.w3.org/2000/svg">
<path d="M109.839 691.891C121.918 703.811 138.238 710.445 155.208 710.335C172.178 710.225 188.409 703.379 200.333 691.303L515.067 372.451L833.92 687.185C846.066 698.765 862.274 705.11 879.053 704.856C895.832 704.601 911.84 697.766 923.629 685.823C935.418 673.88 942.044 657.784 942.081 641.003C942.118 624.222 935.562 608.098 923.826 596.103L559.432 236.416C547.353 224.496 531.034 217.862 514.063 217.972C497.093 218.082 480.862 224.928 468.938 237.004L109.251 601.397C97.3309 613.477 90.6966 629.796 90.8069 646.766C90.9172 663.736 97.763 679.968 109.839 691.891Z" fill="#00FFFF"/>
</svg>
