<svg width="24" height="24" viewBox="0 0 24 24" fill="none" xmlns="http://www.w3.org/2000/svg">
<path d="M4.92969 19.071C6.32821 20.4695 8.11004 21.422 10.0499 21.8078C11.9897 22.1937 14.0004 21.9957 15.8276 21.2388C17.6549 20.4819 19.2167 19.2002 20.3155 17.5557C21.4143 15.9112 22.0008 13.9778 22.0008 12C22.0008 10.0222 21.4143 8.08878 20.3155 6.44428C19.2167 4.79979 17.6549 3.51806 15.8276 2.76119C14.0004 2.00432 11.9897 1.8063 10.0499 2.19217C8.11004 2.57803 6.32821 3.53046 4.92969 4.929" stroke="#00FFFF" stroke-width="2"/>
<path d="M15 12L15.78 11.375L16.28 12L15.78 12.625L15 12ZM3 13C2.73478 13 2.48043 12.8946 2.29289 12.7071C2.10536 12.5196 2 12.2652 2 12C2 11.7348 2.10536 11.4804 2.29289 11.2929C2.48043 11.1054 2.73478 11 3 11V13ZM11.78 6.375L15.78 11.375L14.22 12.625L10.22 7.625L11.78 6.375ZM15.78 12.625L11.78 17.625L10.22 16.375L14.22 11.375L15.78 12.625ZM15 13H3V11H15V13Z" fill="#00FFFF"/>
</svg>
