<svg width="24" height="24" viewBox="0 0 24 24" fill="none" xmlns="http://www.w3.org/2000/svg">
<path d="M4.9292 19.071C6.32772 20.4695 8.10955 21.422 10.0494 21.8078C11.9892 22.1937 13.9999 21.9957 15.8271 21.2388C17.6544 20.4819 19.2162 19.2002 20.315 17.5557C21.4138 15.9112 22.0003 13.9778 22.0003 12C22.0003 10.0222 21.4138 8.08878 20.315 6.44428C19.2162 4.79979 17.6544 3.51806 15.8271 2.76119C13.9999 2.00432 11.9892 1.8063 10.0494 2.19217C8.10955 2.57803 6.32772 3.53046 4.9292 4.929" stroke="#30FF3E" stroke-width="2"/>
<path d="M15 12L15.78 11.375L16.28 12L15.78 12.625L15 12ZM3 13C2.73478 13 2.48043 12.8946 2.29289 12.7071C2.10536 12.5196 2 12.2652 2 12C2 11.7348 2.10536 11.4804 2.29289 11.2929C2.48043 11.1054 2.73478 11 3 11V13ZM11.78 6.375L15.78 11.375L14.22 12.625L10.22 7.625L11.78 6.375ZM15.78 12.625L11.78 17.625L10.22 16.375L14.22 11.375L15.78 12.625ZM15 13H3V11H15V13Z" fill="#30FF3E"/>
</svg>
