<svg width="71" height="40" viewBox="0 0 71 40" fill="none" xmlns="http://www.w3.org/2000/svg">
<path d="M4.67 0.464998C5.69 0.464998 6.38 0.629998 6.74 0.959999C7.13 1.29 7.4 1.98 7.55 3.03L10.52 26.97C10.61 27.69 10.805 28.155 11.105 28.365C11.405 28.575 11.885 28.695 12.545 28.725L12.5 33H10.52C7.88 33 6.14 32.355 5.3 31.065C4.85 30.375 4.535 29.7 4.355 29.04C4.175 28.35 4.01 27.39 3.86 26.16L0.35 0.464998H4.67ZM16.415 33H13.625L18.53 3.03C18.65 2.01 18.905 1.335 19.295 1.005C19.685 0.644998 20.39 0.464998 21.41 0.464998H25.685L21.185 27.06C20.975 28.2 20.795 29.04 20.645 29.58C20.525 30.12 20.3 30.705 19.97 31.335C19.64 31.965 19.19 32.4 18.62 32.64C18.05 32.88 17.315 33 16.415 33ZM29.6025 39.3H26.0025L40.6725 0.464998H44.2725L29.6025 39.3ZM55.6747 0.509997V13.425C55.6747 13.905 55.7797 14.25 55.9897 14.46C56.2297 14.67 56.7397 14.775 57.5197 14.775H60.8497V19.05H55.1347C53.4247 19.05 52.0447 18.87 50.9947 18.51C49.9747 18.15 49.2097 17.52 48.6997 16.62C48.2197 15.69 47.9047 14.7 47.7547 13.65C47.6347 12.6 47.5747 11.19 47.5747 9.42C47.5747 7.62 47.6347 6.255 47.7547 5.325C47.9047 4.395 48.2197 3.525 48.6997 2.715C49.2097 1.905 49.9747 1.335 50.9947 1.005C52.0447 0.674998 53.4247 0.509997 55.1347 0.509997H55.6747ZM62.6497 14.775H63.1897C64.4797 14.775 65.4697 14.805 66.1597 14.865C66.8797 14.895 67.5697 15.03 68.2297 15.27C68.8897 15.48 69.3397 15.735 69.5797 16.035C69.8497 16.335 70.0897 16.86 70.2997 17.61C70.5397 18.33 70.6747 19.11 70.7047 19.95C70.7347 20.79 70.7497 21.99 70.7497 23.55C70.7497 25.11 70.7347 26.355 70.7047 27.285C70.6747 28.185 70.5397 29.055 70.2997 29.895C70.0897 30.705 69.8497 31.275 69.5797 31.605C69.3397 31.935 68.8897 32.235 68.2297 32.505C67.5697 32.745 66.8797 32.895 66.1597 32.955C65.4697 32.985 64.4797 33 63.1897 33H62.6497V14.775ZM48.2047 22.965H53.8747C54.2947 22.965 54.5497 23.025 54.6397 23.145C54.7297 23.265 54.7747 23.52 54.7747 23.91V27.42C54.7747 27.9 54.8347 28.245 54.9547 28.455C55.1047 28.635 55.4497 28.725 55.9897 28.725H60.8497V33H54.2347C52.0447 33 50.3797 32.625 49.2397 31.875C48.1297 31.125 47.5747 29.82 47.5747 27.96V23.91C47.5747 23.28 47.7847 22.965 48.2047 22.965ZM57.4747 0.464998H63.1897C65.3797 0.464998 67.0297 0.839998 68.1397 1.59C69.2797 2.34 69.8497 3.645 69.8497 5.505V9.555C69.8497 10.185 69.6397 10.5 69.2197 10.5H63.5497C63.1297 10.5 62.8747 10.44 62.7847 10.32C62.6947 10.2 62.6497 9.945 62.6497 9.555V6.045C62.6497 5.565 62.5747 5.235 62.4247 5.055C62.3047 4.845 61.9747 4.74 61.4347 4.74H57.4747V0.464998Z" fill="white"/>
</svg>
