<svg width="40" height="40" viewBox="0 0 40 40" fill="none" xmlns="http://www.w3.org/2000/svg">
<path d="M13.2325 4.09C12.7638 4.55882 12.5005 5.19459 12.5005 5.8575C12.5005 6.52041 12.7638 7.15618 13.2325 7.625L25.6075 20L13.2325 32.375C12.7771 32.8465 12.5251 33.478 12.5308 34.1335C12.5365 34.789 12.7994 35.416 13.2629 35.8795C13.7264 36.3431 14.3535 36.606 15.009 36.6117C15.6644 36.6174 16.2959 36.3654 16.7675 35.91L30.91 21.7675C31.3786 21.2987 31.6419 20.6629 31.6419 20C31.6419 19.3371 31.3786 18.7013 30.91 18.2325L16.7675 4.09C16.2986 3.62132 15.6629 3.35803 15 3.35803C14.337 3.35803 13.7013 3.62132 13.2325 4.09Z" fill="#41E74C"/>
</svg>
