<svg width="40" height="40" viewBox="0 0 40 40" fill="none" xmlns="http://www.w3.org/2000/svg">
<path d="M13.233 4.08988C12.7643 4.5587 12.501 5.19447 12.501 5.85738C12.501 6.52029 12.7643 7.15606 13.233 7.62488L25.608 19.9999L13.233 32.3749C12.7776 32.8464 12.5256 33.4779 12.5313 34.1334C12.537 34.7889 12.7999 35.4159 13.2634 35.8794C13.7269 36.343 14.354 36.6059 15.0095 36.6116C15.6649 36.6173 16.2964 36.3653 16.768 35.9099L30.9105 21.7674C31.3791 21.2986 31.6424 20.6628 31.6424 19.9999C31.6424 19.337 31.3791 18.7012 30.9105 18.2324L16.768 4.08988C16.2991 3.6212 15.6634 3.35791 15.0005 3.35791C14.3375 3.35791 13.7018 3.6212 13.233 4.08988Z" fill="#00FFFF"/>
</svg>
