<svg width="215" height="58" viewBox="0 0 215 58" fill="none" xmlns="http://www.w3.org/2000/svg">
<path d="M12.4381 42.6652L13.1822 41.9233L14.1058 41.1396C14.163 41.0911 14.2196 41.0429 14.2764 40.9946C15.0061 40.3745 15.7578 39.7356 17.8854 38.0986L18.7579 37.4273L19.7314 36.8069C19.8423 36.7362 19.949 36.668 20.0533 36.6014C21.0521 35.9636 21.8287 35.4676 23.908 34.2706L24.9741 33.6569L25.9242 33.2132C26.0215 33.1678 26.1168 33.1232 26.2113 33.0789C27.2137 32.6098 28.125 32.1832 30.4181 31.2435L31.4956 30.8019L32.5551 30.4779C32.6583 30.4464 32.7604 30.415 32.8633 30.3834C33.8323 30.0855 34.8607 29.7694 37.2905 29.1595L38.3241 28.9001L39.504 28.7272C41.1218 28.4902 42.751 28.3048 44.3902 28.157L45.585 28.0493L46.5883 28.0802C46.793 28.0865 46.9793 28.0921 47.1513 28.0973C48.7468 28.1451 49.1107 28.156 51.5131 28.3584L52.7951 28.4664L53.4765 28.7077L58.293 30.4139L59.4372 30.8192C58.4494 45.0891 45.9269 56.5 30.5 56.5C21.4895 56.5 13.4547 52.5991 8.14207 46.5053C8.30601 46.5152 8.45366 46.5119 8.53558 46.4971C8.79219 46.4349 8.97128 46.3158 8.99886 46.2975L9.0015 46.2957C9.09371 46.2356 9.16021 46.1768 9.1722 46.1662L9.17344 46.1651C9.21218 46.1311 9.24173 46.1014 9.24766 46.0955C9.26832 46.0749 9.28716 46.055 9.29726 46.0443C9.32117 46.019 9.35121 45.9866 9.38306 45.9519C9.44839 45.8809 9.54099 45.7794 9.65168 45.6578C9.68954 45.6162 9.72974 45.572 9.77203 45.5256C9.97908 45.2981 10.2363 45.0155 10.515 44.7111C11.1942 43.9692 11.9697 43.1322 12.4381 42.6652ZM28.3789 26.5174C28.3789 26.5174 28.3789 26.5174 28.3789 26.5173L28.8403 27.637L28.3789 26.5174ZM53.4151 23.9247C53.4926 23.9413 53.57 23.9582 53.6474 23.9753L53.4518 24.4834L53.3362 24.7837L53.3539 24.5913L53.4151 23.9247ZM1.55061 27.3663C2.44224 13.0099 15.0063 1.5 30.5 1.5C39.293 1.5 47.1538 5.21489 52.4652 11.0542L50.0523 10.7881L49.1544 10.6891L49.1554 10.6735L48.8622 10.6569L48.5821 10.626L48.5802 10.6409L47.6496 10.5882C45.0674 10.4418 44.4026 10.4385 42.6243 10.4297L42.4254 10.4287L41.1098 10.422L41.1091 10.4154L41.0373 10.4217L40.9258 10.4211L40.9257 10.4315L39.6256 10.5456L39.7568 12.0398L39.6255 10.5456L39.6254 10.5456L39.6249 10.5456L39.6232 10.5458L39.6169 10.5463L39.5932 10.5484L39.5029 10.5566C39.4243 10.5637 39.3097 10.5742 39.1648 10.5878C38.8749 10.6151 38.4631 10.6549 37.9736 10.705C36.9963 10.8052 35.7015 10.9478 34.446 11.1162L33.1201 11.2941L33.1173 11.2829L32.9972 11.3106L32.9379 11.3185L32.9388 11.3241L31.6879 11.6125C31.4802 11.6604 31.2891 11.7044 31.1106 11.7454C29.5267 12.1094 28.9432 12.2435 26.6523 12.8838L25.3914 13.2362L25.3873 13.2261L25.2615 13.2725L25.1709 13.2978L25.1731 13.3051L24.0258 13.7283C22.4039 14.3265 20.8036 14.9626 19.2208 15.6212L17.9809 16.1371L17.9803 16.1361L17.9699 16.1417L17.7821 16.2198L17.79 16.237L16.7104 16.8094C16.5275 16.9063 16.3602 16.9949 16.205 17.077C14.7963 17.8226 14.3761 18.045 12.2198 19.3077L11.0836 19.973L11.081 19.9696L11.0408 19.9981L10.8654 20.1008L10.875 20.1156L9.91406 20.7971L10.7818 22.0207L9.91398 20.7972L9.91385 20.7972L9.91345 20.7975L9.91206 20.7985L9.90699 20.8021L9.88783 20.8157L9.81497 20.8677C9.75163 20.9129 9.65946 20.9788 9.54305 21.0626C9.31031 21.23 8.98033 21.4687 8.58986 21.7551C7.81053 22.3266 6.78327 23.0929 5.80513 23.8628L4.81717 24.6404L4.80228 24.6232L3.66881 25.5794L1.55061 27.3663ZM55.9331 15.7859C56.1061 16.0842 56.2733 16.3858 56.4348 16.6907C56.2339 16.6404 56.0326 16.5916 55.8309 16.5442L55.9331 15.7859ZM20.8807 20.8183C20.5656 20.9635 20.2514 21.1115 19.9382 21.2622L20.3964 21.0194L20.8807 20.8183ZM1.76991 32.768L2.50827 33.6166C2.33905 33.7861 2.17073 33.9566 2.00334 34.1281C1.91387 33.6785 1.83596 33.225 1.76991 32.768Z" fill="#30FF3E" stroke="white" stroke-width="3"/>
<path d="M85.935 46H85.395C84.195 46 83.19 45.91 82.38 45.73C81.6 45.55 80.91 45.19 80.31 44.65C79.74 44.08 79.29 43.45 78.96 42.76C78.66 42.07 78.42 41.035 78.24 39.655C77.97 37.585 77.835 34.81 77.835 31.33C77.835 27.82 77.85 25.345 77.88 23.905C77.94 22.465 78.06 21.07 78.24 19.72C78.42 18.34 78.66 17.32 78.96 16.66C79.29 15.97 79.74 15.355 80.31 14.815C80.91 14.245 81.6 13.885 82.38 13.735C83.19 13.555 84.195 13.465 85.395 13.465H85.935V46ZM87.735 13.465H93.45C95.64 13.465 97.29 13.84 98.4 14.59C99.54 15.34 100.11 16.645 100.11 18.505V22.555C100.11 23.185 99.9 23.5 99.48 23.5H93.81C93.39 23.5 93.135 23.44 93.045 23.32C92.955 23.2 92.91 22.945 92.91 22.555V19.045C92.91 18.565 92.835 18.235 92.685 18.055C92.565 17.845 92.235 17.74 91.695 17.74H87.735V13.465ZM93.81 35.965H99.48C99.9 35.965 100.11 36.28 100.11 36.91V40.96C100.11 42.82 99.54 44.125 98.4 44.875C97.29 45.625 95.64 46 93.45 46H87.735V41.725H91.695C92.235 41.725 92.565 41.635 92.685 41.455C92.835 41.245 92.91 40.9 92.91 40.42V36.91C92.91 36.52 92.955 36.265 93.045 36.145C93.135 36.025 93.39 35.965 93.81 35.965ZM109.847 23.5H115.247C115.427 23.5 115.517 23.605 115.517 23.815V26.56C115.517 26.77 115.397 26.875 115.157 26.875H113.132C112.412 26.875 111.992 27.01 111.872 27.28C111.752 27.67 111.692 28.105 111.692 28.585V42.535C111.692 43.555 111.347 44.395 110.657 45.055C109.997 45.685 109.007 46 107.687 46H104.942V28.495C104.942 26.725 105.332 25.45 106.112 24.67C106.922 23.89 108.167 23.5 109.847 23.5ZM118.963 23.545H121.708C123.028 23.545 124.018 23.875 124.678 24.535C125.368 25.165 125.713 25.99 125.713 27.01V46H120.583C120.103 46 119.713 45.835 119.413 45.505C119.113 45.175 118.963 44.74 118.963 44.2V23.545ZM119.278 13.96C119.608 13.63 120.568 13.465 122.158 13.465C123.748 13.465 124.708 13.63 125.038 13.96C125.368 14.26 125.533 15.16 125.533 16.66C125.533 18.16 125.353 19.075 124.993 19.405C124.663 19.735 123.718 19.9 122.158 19.9C120.598 19.9 119.638 19.735 119.278 19.405C118.948 19.075 118.783 18.16 118.783 16.66C118.783 15.16 118.948 14.26 119.278 13.96ZM137.532 46H137.442C134.472 46 132.642 45.49 131.952 44.47C131.622 43.99 131.352 43.525 131.142 43.075C130.962 42.625 130.842 41.92 130.782 40.96C130.632 39.22 130.557 37.285 130.557 35.155C130.557 33.025 130.572 31.495 130.602 30.565C130.632 29.605 130.722 28.645 130.872 27.685C131.052 26.695 131.277 25.99 131.547 25.57C131.817 25.12 132.222 24.715 132.762 24.355C133.302 23.995 133.932 23.77 134.652 23.68C135.372 23.56 136.302 23.5 137.442 23.5H137.532V46ZM142.752 38.89C144.762 38.89 146.292 38.89 147.342 38.89C148.392 38.89 148.932 38.905 148.962 38.935C148.992 38.935 149.037 38.95 149.097 38.98C149.187 38.98 149.247 38.995 149.277 39.025C149.307 39.055 149.337 39.1 149.367 39.16C149.397 39.19 149.412 39.25 149.412 39.34C149.472 39.55 149.502 39.715 149.502 39.835V41.185C149.502 44.395 147.867 46 144.597 46H138.927V42.625H141.357C141.987 42.625 142.377 42.535 142.527 42.355C142.677 42.145 142.752 41.785 142.752 41.275V38.89ZM138.927 23.5H144.597C147.867 23.5 149.502 25.105 149.502 28.315V31.375C147.492 31.375 145.962 31.375 144.912 31.375C143.862 31.375 143.322 31.375 143.292 31.375C143.262 31.345 143.202 31.33 143.112 31.33C143.052 31.3 143.007 31.27 142.977 31.24C142.947 31.21 142.917 31.18 142.887 31.15C142.857 31.09 142.842 31.03 142.842 30.97C142.782 30.73 142.752 30.55 142.752 30.43V28.225C142.752 27.715 142.677 27.37 142.527 27.19C142.377 26.98 141.987 26.875 141.357 26.875H138.927V23.5ZM184.377 46H184.287C181.317 46 179.487 45.49 178.797 44.47C178.467 43.99 178.197 43.525 177.987 43.075C177.807 42.625 177.687 41.92 177.627 40.96C177.477 39.22 177.402 37.285 177.402 35.155C177.402 33.025 177.417 31.495 177.447 30.565C177.477 29.605 177.567 28.645 177.717 27.685C177.897 26.695 178.122 25.99 178.392 25.57C178.662 25.12 179.067 24.715 179.607 24.355C180.147 23.995 180.777 23.77 181.497 23.68C182.217 23.56 183.147 23.5 184.287 23.5H184.377V46ZM196.347 38.89V41.185C196.347 44.395 194.712 46 191.442 46H185.772V42.625H188.202C188.832 42.625 189.222 42.535 189.372 42.355C189.522 42.145 189.597 41.785 189.597 41.275V39.835C189.597 39.385 189.642 39.13 189.732 39.07C189.852 39.01 189.927 38.98 189.957 38.98C189.987 38.95 190.062 38.935 190.182 38.935C190.332 38.905 190.437 38.89 190.497 38.89C192.447 38.89 194.397 38.89 196.347 38.89ZM185.772 23.5H190.992C193.062 23.5 194.472 23.905 195.222 24.715C195.972 25.525 196.347 26.725 196.347 28.315V32.275C196.347 34.975 194.877 36.325 191.937 36.325H185.322V32.95H187.752C188.472 32.95 188.952 32.86 189.192 32.68C189.462 32.5 189.597 32.155 189.597 31.645V28.225C189.597 27.715 189.522 27.37 189.372 27.19C189.222 26.98 188.832 26.875 188.202 26.875H185.772V23.5ZM212.526 45.64C212.526 45.82 212.436 45.94 212.256 46H208.836C206.646 46 205.056 45.565 204.066 44.695C203.076 43.825 202.581 42.295 202.581 40.105V26.965H200.286C199.536 26.965 199.161 26.515 199.161 25.615V23.5H202.581V13.465H205.326C206.646 13.465 207.636 13.795 208.296 14.455C208.986 15.115 209.331 15.955 209.331 16.975V40.915C209.331 42.025 209.961 42.58 211.221 42.58H212.166C212.406 42.58 212.526 42.685 212.526 42.895V45.64ZM213.921 23.5V25.615C213.921 26.515 213.546 26.965 212.796 26.965H210.456V23.5H213.921Z" fill="white"/>
<path d="M154.031 13.465H156.776C158.096 13.465 159.086 13.795 159.746 14.455C160.436 15.085 160.781 15.91 160.781 16.93V46H155.651C155.171 46 154.781 45.835 154.481 45.505C154.181 45.175 154.031 44.74 154.031 44.2V13.465ZM166.181 35.785H171.311C171.791 35.785 172.181 35.95 172.481 36.28C172.781 36.61 172.931 37.045 172.931 37.585V46H167.801C167.321 46 166.931 45.835 166.631 45.505C166.331 45.175 166.181 44.74 166.181 44.2V35.785ZM172.481 23.5V29.71C172.481 32.92 170.846 34.525 167.576 34.525H161.906V31.15H164.336C164.966 31.15 165.356 31.06 165.506 30.88C165.656 30.67 165.731 30.31 165.731 29.8V25.345C165.731 24.115 166.271 23.5 167.351 23.5H172.481Z" fill="#30FF3E"/>
</svg>
