<svg width="24" height="24" viewBox="0 0 24 24" fill="none" xmlns="http://www.w3.org/2000/svg">
<path d="M16.052 1.78711L17.018 2.04811C18.1994 2.36779 19.2763 2.99161 20.1413 3.85735C21.0064 4.72309 21.6293 5.80049 21.948 6.98211L22.208 7.94711L20.278 8.46811L20.017 7.50311C19.7893 6.65908 19.3442 5.88952 18.7262 5.27118C18.1082 4.65284 17.3389 4.20734 16.495 3.97911L15.53 3.71711L16.052 1.78711ZM1.00002 2.00011H9.58002L11.067 8.69011L9.20702 10.5501C10.3002 12.2525 11.7473 13.6994 13.45 14.7921L15.31 12.9331L22 14.4201V23.0001H21C17.1504 23.0061 13.3817 21.896 10.15 19.8041C7.76729 18.262 5.73811 16.2328 4.19602 13.8501C2.10422 10.6184 0.994094 6.84969 1.00002 3.00011V2.00011ZM3.02702 4.00011C3.19526 7.12008 4.1775 10.1416 5.87602 12.7641C7.26439 14.909 9.09111 16.7357 11.236 18.1241C13.8585 19.8227 16.88 20.805 20 20.9731V16.0241L15.947 15.1241L13.773 17.2991L13.11 16.9221C10.5928 15.4915 8.50868 13.4074 7.07802 10.8901L6.70102 10.2271L8.87602 8.05311L7.97602 4.00011H3.02702ZM15.138 5.16511L16.104 5.42611C16.6947 5.58595 17.2332 5.89786 17.6657 6.33073C18.0982 6.7636 18.4097 7.3023 18.569 7.89311L18.829 8.85811L16.899 9.37911L16.638 8.41411C16.5696 8.16089 16.436 7.93003 16.2506 7.74456C16.0651 7.55909 15.8342 7.4255 15.581 7.35711L14.616 7.09611L15.138 5.16511Z" fill="#00FFFF"/>
</svg>
