<svg width="42" height="42" viewBox="0 0 42 42" fill="none" xmlns="http://www.w3.org/2000/svg">
<path d="M21 0C9.40275 0 0 9.40275 0 21C0 32.5972 9.40275 42 21 42C32.5972 42 42 32.5972 42 21C42 9.40275 32.5972 0 21 0ZM31.6155 16.8788C31.9357 23.9488 26.663 31.8307 17.3285 31.8307C14.49 31.8307 11.8493 30.9978 9.625 29.5715C12.292 29.8865 14.9537 29.1445 17.066 27.4907C14.868 27.4505 13.0112 25.9962 12.369 23.9995C13.1582 24.15 13.9353 24.1062 14.6405 23.9137C12.2238 23.4272 10.5542 21.2503 10.6085 18.921C11.2875 19.2973 12.061 19.523 12.8852 19.5492C10.647 18.053 10.0135 15.0972 11.3295 12.838C13.8075 15.8795 17.5122 17.8797 21.6895 18.0897C20.9563 14.9467 23.3415 11.9175 26.5877 11.9175C28.0315 11.9175 29.3387 12.5282 30.2557 13.5048C31.4002 13.2808 32.4783 12.8607 33.4478 12.285C33.0715 13.4592 32.2753 14.4428 31.2375 15.0658C32.2543 14.9433 33.2238 14.6738 34.1233 14.273C33.4513 15.2845 32.6008 16.17 31.6155 16.8788Z" fill="#00FFFF"/>
</svg>
